#tb 0: 1/25
#media_type 0: video
#codec_id 0: rawvideo
#dimensions 0: 720x576
#sar 0: 16/15
0,          9,          9,        1,  2488320, 0xf702518b
0,         10,         10,        1,  2488320, 0x6bd98e5c
0,         11,         11,        1,  2488320, 0xda377506
0,         12,         12,        1,  2488320, 0xb0bdd842
0,         13,         13,        1,  2488320, 0xec5ba916
0,         14,         14,        1,  2488320, 0x2d7c809f
0,         15,         15,        1,  2488320, 0x92031846
0,         16,         16,        1,  2488320, 0x76fd0082
0,         17,         17,        1,  2488320, 0x6286fd31
0,         18,         18,        1,  2488320, 0x955609c0
0,         19,         19,        1,  2488320, 0x8a04c8e9
0,         20,         20,        1,  2488320, 0x86b1bf8a
0,         21,         21,        1,  2488320, 0x9ce5c68d
0,         22,         22,        1,  2488320, 0x62451c84
0,         23,         23,        1,  2488320, 0x2abc188a
0,         24,         24,        1,  2488320, 0x3c7f30d3
0,         25,         25,        1,  2488320, 0xb14c3b9a
0,         26,         26,        1,  2488320, 0x450bbc14
0,         27,         27,        1,  2488320, 0x5896bd2c
0,         28,         28,        1,  2488320, 0x0ef09309
0,         29,         29,        1,  2488320, 0xe4dbcace
0,         30,         30,        1,  2488320, 0xc0a84831
0,         31,         31,        1,  2488320, 0x48400d76
0,         32,         32,        1,  2488320, 0x7e66ae1d
0,         33,         33,        1,  2488320, 0xdcf2bc9e
0,         34,         34,        1,  2488320, 0x8dcf9290
0,         35,         35,        1,  2488320, 0xba34ac00
0,         36,         36,        1,  2488320, 0xba421c87
0,         37,         37,        1,  2488320, 0xcd3e65b7
0,         38,         38,        1,  2488320, 0x1bf501f3
